<?xml version="1.0" encoding="utf-8"?>
<!-- Generator: Adobe Illustrator 21.1.0, SVG Export Plug-In . SVG Version: 6.00 Build 0)  -->
<svg version="1.1" id="Layer_1" xmlns="http://www.w3.org/2000/svg" xmlns:xlink="http://www.w3.org/1999/xlink" x="0px" y="0px"
	 viewBox="0 0 36 36" style="enable-background:new 0 0 36 36;" xml:space="preserve">
<style type="text/css">
	.st0{fill:#FFFFFF;}
</style>
<rect width="36" height="36"/>
<g>
	<path class="st0" d="M7.2,11.6h3.1L15,24.8h-3l-0.9-2.7H6.2l-0.9,2.7H2.4L7.2,11.6z M7,19.8h3.4l-1.7-5.2L7,19.8z"/>
	<path class="st0" d="M22.9,11.9c0.9,0.3,1.7,0.9,2.3,1.7c0.5,0.7,0.8,1.4,0.9,2.1c0.2,0.8,0.3,1.5,0.3,2.2c0,1.8-0.4,3.3-1.1,4.5
		c-1,1.7-2.4,2.5-4.5,2.5h-5.7V11.6h5.7C21.6,11.6,22.3,11.7,22.9,11.9z M17.8,13.9v8.7h2.6c1.3,0,2.2-0.6,2.7-1.9
		c0.3-0.7,0.4-1.6,0.4-2.5c0-1.4-0.2-2.4-0.6-3.1c-0.4-0.7-1.3-1.1-2.5-1.1H17.8z"/>
	<path class="st0" d="M31.4,11.2h2.1l-5.2,13.7h-2.1L31.4,11.2z"/>
</g>
</svg>
