<?xml version="1.0" encoding="utf-8"?>
<!-- Generator: Adobe Illustrator 21.1.0, SVG Export Plug-In . SVG Version: 6.00 Build 0)  -->
<svg version="1.1" id="Layer_1" xmlns="http://www.w3.org/2000/svg" xmlns:xlink="http://www.w3.org/1999/xlink" x="0px" y="0px"
	 viewBox="0 0 529 121" style="enable-background:new 0 0 529 121;" xml:space="preserve">
<style type="text/css">
	.st0{fill:#FFFFFF;}
</style>
<g>
	<g>
		<path class="st0" d="M53.1,21.7h11.4l23.5,60.8H76.5l-5.7-15.2H46.5l-5.7,15.2h-11L53.1,21.7z M49.4,57.1H68l-9.1-25.3h-0.3
			L49.4,57.1z"/>
		<path class="st0" d="M88.8,21.7H99v22.8h0.5c2.6-5.1,8.2-7.2,13.1-7.2c13.9,0,20.7,10.5,20.7,23.4c0,11.9-6,23.5-19,23.5
			c-6,0-12.4-1.7-15.3-6.8h0v5.1H88.8V21.7z M111.3,44.8c-8.2,0-12.4,6.2-12.4,15.6c0,8.9,4.5,15.5,12.4,15.5
			c8.9,0,12.2-7.9,12.2-15.5C123.5,52.4,119.3,44.8,111.3,44.8z"/>
		<path class="st0" d="M136.3,60.3c0-13.5,8.1-23.2,22.3-23.2c14.2,0,22.3,9.7,22.3,23.2c0,13.6-8.1,23.3-22.3,23.3
			C144.4,83.6,136.3,73.9,136.3,60.3z M171.2,60.3c0-7.6-3.8-15.5-12.5-15.5c-8.7,0-12.5,7.9-12.5,15.5c0,7.7,3.8,15.6,12.5,15.6
			C167.3,75.9,171.2,68,171.2,60.3z"/>
		<path class="st0" d="M223.1,82.5H213v-5.1h-0.7c-2.4,2.5-8,6.8-12.9,6.8c-11.5,0-16.8-6.4-16.8-17.9V39.4h10.1v25.9
			c0,7.8,3.7,10.6,8.9,10.6c8.1,0,11.3-5.2,11.3-12V39.4h10.1V82.5z"/>
		<path class="st0" d="M225.7,39.4h7.6V24.2h10.1v15.2h7.6v5.1h-7.6v24.6c0,4-0.3,6.1,4.1,6.1c1.4,0,1,0,3.5-0.3v7.5
			c-2.5,0.2-3.8,0.5-5.9,0.5c-10.2,0-11.8-3.9-11.8-11.3V44.5h-7.6V39.4z"/>
		<path class="st0" d="M256.1,21.7h26c18.8,0,26.9,13.6,26.9,30.4c0,16.8-8.1,30.4-26.9,30.4h-26V21.7z M266.2,74.9h11.7
			c16.7,0,20.3-10.6,20.3-22.8c0-12.2-3.6-22.8-20.3-22.8h-11.7V74.9z"/>
		<path class="st0" d="M321.2,62.2c0,7.6,3.8,14,11.9,14c5.6,0,9-3.9,10.8-6.4h9.2c-2.1,7.6-10.3,14.4-20,14.4
			c-13.8,0-21.6-10-21.6-23.5c0-12.6,8.2-23.8,21.3-23.8c13.9,0,22.4,12.6,20.8,25.3H321.2z M343.9,57.1
			c-0.3-7.6-4.5-11.7-11.1-11.7c-6.8,0-11.4,4.1-11.6,11.7H343.9z"/>
		<path class="st0" d="M365,67.3c0.5,7.6,4.8,8.2,10,8.2c3.7,0,10.1-0.5,9.8-5.6c-0.3-5.1-7.3-5.6-14.4-7.2c-7.2-1.5-14.2-4-14.2-13
			c0-9.6,10.4-13.2,18.4-13.2c9,0,17.2,5.4,18.4,13h-10.2c-0.9-2.5-4.7-5.3-9-5.3c-2.8,0-8,1-8,4.8c0,4.8,7.2,5.6,14.3,7.2
			c7.1,1.6,14.3,4.3,14.3,13c0,10.5-10.6,13.9-19.7,13.9c-11.1,0-19.4-5.7-19.5-15.8H365z"/>
		<path class="st0" d="M397.9,21.7h10.1v10.1h-10.1V21.7z M397.9,39.4h10.1v43.1h-10.1V39.4z"/>
		<path class="st0" d="M456.2,80.1c0,13.2-8.1,19.2-22,19.2c-8.9,0-19.1-1.6-20-14.3h9.7c1.2,7.6,5.7,7.1,10.7,7.1
			c7.9,0,11.4-3.4,11.4-10.7v-6.5h-0.3c-2.7,5.1-7.8,7.6-13.2,7.6c-14,0-19.8-10.6-19.8-23.3c0-11.9,7.4-22.1,20-22.1
			c5.5,0,10.6,2.2,13.1,7.3h0.3v-5.1h10.1V80.1z M445.9,59.4c0-7.6-3.4-14.6-11.9-14.6c-8.6,0-11.6,8-11.6,15.4
			c0,7.3,3.5,14.6,11.6,14.6C442.7,74.7,445.9,66.9,445.9,59.4z"/>
		<path class="st0" d="M458.7,39.4h10.1v5.3l0.2,0.2c2.9-4.9,8.4-7.9,14.2-7.9c9.6,0,16,5.1,16,15v30.4h-10.1V54.7
			c0-6.9-3.4-9.9-9.1-9.9c-6.5,0-11.2,5.1-11.2,11.6v26.1h-10.1V39.4z"/>
	</g>
</g>
</svg>
