<svg id="Layer_1" data-name="Layer 1" xmlns="http://www.w3.org/2000/svg" viewBox="0 0 611 149"><title>ABOUTDESIGN_LOGO</title><path d="M51.41,27.27H65.08l28.27,73.4H79.58L72.69,81.23H43.4l-6.89,19.44H23.25Zm-4.52,44.2H69.3l-11-31.56H58Z"/><path d="M95.31,27.27H107V54.41h.21c3.19-5.14,9.86-8.33,15.82-8.33,16.76,0,24.88,12.75,24.88,28.27,0,14.29-7.19,27.75-22.92,27.75-7.2,0-14.91-1.75-18.4-8.74h-.21v7.3H95.31Zm26.21,28.06c-9.87,0-14.9,7.51-14.9,18.81,0,10.69,5.45,18.71,14.9,18.71,10.69,0,14.7-9.46,14.7-18.71C136.22,64.49,131.18,55.33,121.52,55.33Z"/><path d="M151.63,74c0-16.24,9.77-28,26.83-28s26.83,11.72,26.83,28-9.77,28.07-26.83,28.07S151.63,90.38,151.63,74Zm41.94,0c0-9.14-4.63-18.7-15.11-18.7S163.35,64.9,163.35,74,168,92.85,178.46,92.85,193.57,83.28,193.57,74Z"/><path d="M254.83,100.67H243.32V93.26h-.21A17.84,17.84,0,0,1,228,102.1c-13.88,0-19.84-7-19.84-20.87V47.52h11.71V80.11c0,9.35,3.81,12.74,10.18,12.74,9.77,0,13.05-6.27,13.05-14.49V47.52h11.72Z"/><path d="M258.63,47.52h8.84V31.59h11.72V47.52h10.58v8.74H279.19V84.62c0,4.84.41,7.3,5.65,7.3a20,20,0,0,0,4.93-.41v9c-2.57.2-5,.62-7.61.62-12.23,0-14.49-4.72-14.69-13.56V56.25h-8.84Z"/><path d="M296.66,27.27h30.43c22.61,0,32.38,16.45,32.38,36.7s-9.77,36.7-32.38,36.7H296.66Zm12.86,62.91h12.64c20.15,0,24.47-11.52,24.47-26.21s-4.32-26.21-24.47-26.21H309.51Z"/><path d="M374.26,77.12c0,8.32,4.53,15.72,14.29,15.72,6.78,0,10.9-3,12.95-8.84h11.1c-2.57,11.62-12.44,18.09-24,18.09-16.65,0-26-11.62-26-28,0-15.11,9.87-28.06,25.71-28.06,16.75,0,27,15.12,25.08,31Zm27.35-7.72c-.42-7.4-5.45-14.07-13.36-14.07-8.14,0-13.67,6.16-14,14.07Z"/><path d="M427,83.6c.61,6.78,5.76,9.25,12,9.25,4.43,0,12.13-.92,11.82-7S442,79,433.47,77s-17.06-4.93-17.06-15.72c0-11.62,12.54-15.21,22.21-15.21,10.89,0,20.76,4.53,22.2,16.34H448.58c-1-5.55-5.65-7.08-10.79-7.08-3.39,0-9.66.82-9.66,5.45,0,5.75,8.63,6.57,17.27,8.53s17.17,5,17.17,15.52c0,12.64-12.75,17.27-23.75,17.27-13.36,0-23.33-6-23.54-18.5Z"/><path d="M467.7,27.27h11.71v11.1H467.7Zm0,20.25h11.71v53.15H467.7Z"/><path d="M536.16,97.88c0,15.94-9.37,23.85-26.11,23.85-10.69,0-22.71-4.11-23.74-16.54H498c1.44,6.67,6.78,7.81,12.75,7.81,9.46,0,13.67-4.83,13.67-13.57V91.31h-.2a18.21,18.21,0,0,1-15.93,9.36c-16.86,0-23.84-12.75-23.84-28,0-14.29,8.94-26.63,24.05-26.63,6.68,0,12.74,2.78,15.72,8.74h.2v-7.3h11.73Zm-11.73-25c0-9.14-4.11-17.57-14.28-17.57-10.39,0-14,9.66-14,18.5s4.21,17.57,14,17.57C520.53,91.41,524.43,82,524.43,72.91Z"/><path d="M541.09,47.52h11.1v7.82l.2.2a19,19,0,0,1,16.55-9.46c11.52,0,18.81,6.17,18.81,18.09v36.5H576V67.25c-.2-8.33-3.5-11.92-10.38-11.92-7.81,0-12.85,6.16-12.85,14v31.36H541.09Z"/></svg>